
<svg xmlns="http://www.w3.org/2000/svg" version="1.1" xmlns:xlink="http://www.w3.org/1999/xlink" preserveAspectRatio="none" x="0px" y="0px" width="1920px" height="1080px" viewBox="0 0 1920 1080">
<defs>
<linearGradient id="Gradient_1" gradientUnits="userSpaceOnUse" x1="147.16249999999997" y1="-388.83750000000003" x2="378.2375" y2="298.83750000000003" spreadMethod="pad">
<stop  offset="0%" stop-color="#FEC23F"/>

<stop  offset="50.19607843137255%" stop-color="#FFFF82"/>

<stop  offset="100%" stop-color="#FEC23F"/>
</linearGradient>

<linearGradient id="Gradient_2" gradientUnits="userSpaceOnUse" x1="-107.65" y1="-125.85000000000001" x2="104.45000000000002" y2="178.75" spreadMethod="pad">
<stop  offset="0%" stop-color="#FEC23F"/>

<stop  offset="50.19607843137255%" stop-color="#FFFF82"/>

<stop  offset="100%" stop-color="#FEC23F"/>
</linearGradient>

<linearGradient id="Gradient_3" gradientUnits="userSpaceOnUse" x1="215.075" y1="-23.075000000000003" x2="-93.675" y2="-234.22500000000002" spreadMethod="pad">
<stop  offset="0%" stop-color="#FFE44E"/>

<stop  offset="0%" stop-color="#FFE44E"/>

<stop  offset="50.19607843137255%" stop-color="#FFF6C3"/>

<stop  offset="100%" stop-color="#FFE44E"/>
</linearGradient>

<linearGradient id="Gradient_4" gradientUnits="userSpaceOnUse" x1="215.075" y1="-23.075000000000003" x2="-93.675" y2="-234.22500000000002" spreadMethod="pad">
<stop  offset="0%" stop-color="#FEC23F"/>

<stop  offset="50.19607843137255%" stop-color="#FFFF82"/>

<stop  offset="100%" stop-color="#FEC23F"/>
</linearGradient>

<linearGradient id="Gradient_5" gradientUnits="userSpaceOnUse" x1="0" y1="0" x2="0" y2="0" spreadMethod="pad">
<stop  offset="0%" stop-color="#FFE44E"/>

<stop  offset="0%" stop-color="#FFE44E"/>

<stop  offset="50.19607843137255%" stop-color="#FFF6C3"/>

<stop  offset="100%" stop-color="#FFE44E"/>
</linearGradient>

<g id="hover_0_Layer0_0_FILL">
<path fill="#904600" stroke="none" d="
M 320.95 -317
Q 319.9623046875 -317.9876953125 318.95 -319 296.2876953125 -341.6623046875 272 -360.45 154.7951171875 -451.1 0 -451.1 -186.85 -451.1 -319 -319 -451.1 -186.85 -451.1 0 -451.1 125.608203125 -391.4 226.45 -365.0724609375 270.9630859375 -327.15 310.65 -323.1291015625 314.8208984375 -319 318.95 -270.68984375 367.26015625 -215.1 397.9 -196.7205078125 408.0154296875 -177.6 416.2 -96.0033203125 451.1 0 451.1 186.85 451.1 318.95 318.95 451.1 186.85 451.1 0 451.1 -103.9828125 410.15 -191.05 402.88984375 -206.5296875 394.3 -221.5 365.1236328125 -272.340625 320.95 -317
M 261.35 -261.3
Q 261.8755859375 -260.7744140625 262.4 -260.25 307.99140625 -214.3427734375 334.2 -160.45 342.127734375 -144.114453125 348.25 -127.1 369.65 -67.902734375 369.65 0.1 369.65 153.2 261.35 261.45 153.15 369.75 0 369.75 -61.46953125 369.75 -115.75 352.3 -135.882421875 345.8021484375 -155.05 336.9 -212.7462890625 310.1037109375 -261.4 261.45 -265.0888671875 257.7611328125 -268.65 254 -305.4697265625 215.3662109375 -328.9 171.15 -369.65 94.0751953125 -369.65 0.1 -369.65 -153 -261.4 -261.3 -153.1 -369.55 0 -369.55 118.1271484375 -369.55 209.5 -305.15 236.6064453125 -286.055078125 261.35 -261.3
M 262.4 -260.25
Q 261.8755859375 -260.7744140625 261.35 -261.3 236.6064453125 -286.055078125 209.5 -305.15 118.1271484375 -369.55 0 -369.55 -153.1 -369.55 -261.4 -261.3 -369.65 -153 -369.65 0.1 -369.65 94.0751953125 -328.9 171.15 -305.4697265625 215.3662109375 -268.65 254 -265.0888671875 257.7611328125 -261.4 261.45 -212.7462890625 310.1037109375 -155.05 336.9 -135.882421875 345.8021484375 -115.75 352.3 -61.46953125 369.75 0 369.75 153.15 369.75 261.35 261.45 369.65 153.2 369.65 0.1 369.65 -67.902734375 348.25 -127.1 342.127734375 -144.114453125 334.2 -160.45 307.99140625 -214.3427734375 262.4 -260.25 Z"/>
</g>

<g id="hover_0_Layer0_1_FILL">
<path fill="url(#Gradient_1)" stroke="none" d="
M -272.6 272.7
Q -276.38984375 268.91015625 -280.05 265.05
L -327.15 310.65
Q -323.1291015625 314.8208984375 -319 318.95 -270.68984375 367.26015625 -215.1 397.9
L -166.9 348.9
Q -224.0564453125 321.2435546875 -272.6 272.7
M 410.15 -191.05
L 360.5 -139.75
Q 385.5 -74.9755859375 385.5 0.1 385.5 159.8 272.55 272.7 159.75 385.65 0 385.65 -68.278125 385.65 -128 365
L -177.6 416.2
Q -96.0033203125 451.1 0 451.1 186.85 451.1 318.95 318.95 451.1 186.85 451.1 0 451.1 -103.9828125 410.15 -191.05
M 320.95 -317
L 273.75 -271.3
Q 319.0626953125 -225.6357421875 346 -172.4
L 394.3 -221.5
Q 365.1236328125 -272.340625 320.95 -317
M 221.7 -315.95
L 272 -360.45
Q 154.7951171875 -451.1 0 -451.1 -186.85 -451.1 -319 -319 -451.1 -186.85 -451.1 0 -451.1 125.608203125 -391.4 226.45
L -341.1 181.95
Q -385.5 100.24140625 -385.5 0.1 -385.5 -159.55 -272.6 -272.5 -159.65 -385.4 0 -385.4 125.304296875 -385.4 221.7 -315.95
M 0 353.9
Q 146.55 353.9 250.15 250.25 353.8 146.65 353.8 0.15 353.8 -60.770703125 335.9 -114.3
L -103.35 339.45
Q -54.6419921875 353.9 0 353.9
M 322.3 -148.35
Q 296.9146484375 -203.0197265625 251 -249.2
L -257.3 243
Q -253.8048828125 246.6451171875 -250.2 250.25 -201.4353515625 299.0146484375 -143.2 324.8
L 322.3 -148.35
M 197.25 -294.3
Q 110.927734375 -353.65 0 -353.65 -146.55 -353.65 -250.2 -250.05 -353.8 -146.4 -353.8 0.15 -353.8 87.9279296875 -316.6 160.3
L 197.25 -294.3 Z"/>

<path fill="#FFFFB9" stroke="none" d="
M 320.95 -317
Q 319.9623046875 -317.9876953125 318.95 -319 296.2876953125 -341.6623046875 272 -360.45
L 221.7 -315.95
Q 125.304296875 -385.4 0 -385.4 -159.65 -385.4 -272.6 -272.5 -385.5 -159.55 -385.5 0.1 -385.5 100.24140625 -341.1 181.95
L -391.4 226.45
Q -365.0724609375 270.9630859375 -327.15 310.65
L -280.05 265.05
Q -276.38984375 268.91015625 -272.6 272.7 -224.0564453125 321.2435546875 -166.9 348.9
L -215.1 397.9
Q -196.7205078125 408.0154296875 -177.6 416.2
L -128 365
Q -68.278125 385.65 0 385.65 159.75 385.65 272.55 272.7 385.5 159.8 385.5 0.1 385.5 -74.9755859375 360.5 -139.75
L 410.15 -191.05
Q 402.88984375 -206.5296875 394.3 -221.5
L 346 -172.4
Q 319.0626953125 -225.6357421875 273.75 -271.3
L 320.95 -317
M 261.35 -261.3
Q 261.8755859375 -260.7744140625 262.4 -260.25 307.99140625 -214.3427734375 334.2 -160.45 342.127734375 -144.114453125 348.25 -127.1 369.65 -67.902734375 369.65 0.1 369.65 153.2 261.35 261.45 153.15 369.75 0 369.75 -61.46953125 369.75 -115.75 352.3 -135.882421875 345.8021484375 -155.05 336.9 -212.7462890625 310.1037109375 -261.4 261.45 -265.0888671875 257.7611328125 -268.65 254 -305.4697265625 215.3662109375 -328.9 171.15 -369.65 94.0751953125 -369.65 0.1 -369.65 -153 -261.4 -261.3 -153.1 -369.55 0 -369.55 118.1271484375 -369.55 209.5 -305.15 236.6064453125 -286.055078125 261.35 -261.3
M 335.9 -114.3
Q 330.0587890625 -131.7068359375 322.3 -148.35
L -143.2 324.8
Q -123.7740234375 333.42734375 -103.35 339.45
L 335.9 -114.3
M 251 -249.2
Q 250.570703125 -249.629296875 250.15 -250.05 224.9677734375 -275.2322265625 197.25 -294.3
L -316.6 160.3
Q -293.885546875 204.5201171875 -257.3 243
L 251 -249.2 Z"/>

<path fill="#904600" stroke="none" d="
M 262.4 -260.25
Q 261.8755859375 -260.7744140625 261.35 -261.3 236.6064453125 -286.055078125 209.5 -305.15 118.1271484375 -369.55 0 -369.55 -153.1 -369.55 -261.4 -261.3 -369.65 -153 -369.65 0.1 -369.65 94.0751953125 -328.9 171.15 -305.4697265625 215.3662109375 -268.65 254 -265.0888671875 257.7611328125 -261.4 261.45 -212.7462890625 310.1037109375 -155.05 336.9 -135.882421875 345.8021484375 -115.75 352.3 -61.46953125 369.75 0 369.75 153.15 369.75 261.35 261.45 369.65 153.2 369.65 0.1 369.65 -67.902734375 348.25 -127.1 342.127734375 -144.114453125 334.2 -160.45 307.99140625 -214.3427734375 262.4 -260.25
M 250.15 -250.05
Q 250.570703125 -249.629296875 251 -249.2 296.9146484375 -203.0197265625 322.3 -148.35 330.0587890625 -131.7068359375 335.9 -114.3 353.8 -60.770703125 353.8 0.15 353.8 146.65 250.15 250.25 146.55 353.9 0 353.9 -54.6419921875 353.9 -103.35 339.45 -123.7740234375 333.42734375 -143.2 324.8 -201.4353515625 299.0146484375 -250.2 250.25 -253.8048828125 246.6451171875 -257.3 243 -293.885546875 204.5201171875 -316.6 160.3 -353.8 87.9279296875 -353.8 0.15 -353.8 -146.4 -250.2 -250.05 -146.55 -353.65 0 -353.65 110.927734375 -353.65 197.25 -294.3 224.9677734375 -275.2322265625 250.15 -250.05 Z"/>
</g>

<g id="hover_0_Layer0_2_FILL">
<path fill="#904600" stroke="none" d="
M 94.05 -290
Q 94.05 -304.9 83.45 -315.5 72.9 -326.05 58 -326.05
L -71.95 -326.05
Q -86.85 -326.05 -97.45 -315.5 -108 -304.9 -108 -290
L -108 296.05
Q -108 310.95 -97.45 321.5 -86.85 332.1 -71.95 332.1
L 58 332.1
Q 72.9 332.1 83.45 321.5 94.05 310.95 94.05 296.05
L 94.05 -290 Z"/>
</g>

<g id="hover_0_Layer0_3_FILL">
<path fill="url(#Gradient_2)" stroke="none" d="
M 264.3 -66.05
Q 291.0759765625 -86.2609375 279.3 -115.45
L 221.75 -202.65 -277.4 147.3 -214.05 239.4
Q -207.26796875 249.3193359375 -195.3 251.75
L 264.3 -66.05 Z"/>

<path fill="#FFFFB9" stroke="none" d="
M 231.85 -205.45
Q 230.8431640625 -206.9125 229.7 -208.25 222.7826171875 -216.2900390625 211.55 -218.15 211.30625 -218.16171875 211.05 -218.2 197.55 -220.15 186 -212.2
L -268.5 100.45
Q -280.05 108.4 -283 121.6 -285.95 134.9 -278.55 145.65
L -277.4 147.3 221.75 -202.65 279.3 -115.45
Q 291.0759765625 -86.2609375 264.3 -66.05
L -195.3 251.75
Q -194.2892578125 251.9494140625 -193.25 252.1 -179.8 254.15 -168.25 246.2
L 286.25 -66.45
Q 297.8 -74.4 300.8 -87.7 303.7 -100.95 296.35 -111.7
L 231.85 -205.45 Z"/>
</g>

<g id="hover_0_Layer0_4_FILL">
<path fill="#AE6B39" stroke="none" d="
M -5.65 -232.65
Q -102 -232.65 -170.15 -164.5 -238.3 -96.35 -238.3 0 -238.3 64.8 -207.5 116.8 -193.9 139.75 -174.35 160.2 -172.3 162.35 -170.15 164.5 -145.25 189.4 -116.55 205.2 -107.1 210.4 -97.2 214.65 -55.15 232.65 -5.65 232.65 90.7 232.65 158.85 164.5 227 96.35 227 0 227 -53.65 205.9 -98.5 202.15 -106.5 197.7 -114.25 182.65 -140.45 159.9 -163.45 159.35 -164 158.85 -164.5 147.15 -176.2 134.65 -185.85 74.2 -232.65 -5.65 -232.65
M -140.45 -134.75
Q -84.6 -190.6 -5.65 -190.6 55.3 -190.6 102.4 -157.4 116.35 -147.55 129.15 -134.75 129.4 -134.5 129.7 -134.2 153.2 -110.55 166.7 -82.7 170.8 -74.3 174 -65.5 185 -35 185 0.05 185 79 129.15 134.85 73.35 190.7 -5.65 190.7 -37.35 190.7 -65.3 181.7 -75.75 178.35 -85.6 173.75 -115.35 159.95 -140.45 134.85 -142.35 132.95 -144.2 131 -163.2 111.05 -175.25 88.25 -196.3 48.55 -196.3 0.05 -196.3 -78.9 -140.45 -134.75 Z"/>

<path fill="#904600" stroke="none" d="
M -5.65 -190.6
Q -84.6 -190.6 -140.45 -134.75 -196.3 -78.9 -196.3 0.05 -196.3 48.55 -175.25 88.25 -163.2 111.05 -144.2 131 -142.35 132.95 -140.45 134.85 -115.35 159.95 -85.6 173.75 -75.75 178.35 -65.3 181.7 -37.35 190.7 -5.65 190.7 73.35 190.7 129.15 134.85 185 79 185 0.05 185 -35 174 -65.5 170.8 -74.3 166.7 -82.7 153.2 -110.55 129.7 -134.2 129.4 -134.5 129.15 -134.75 116.35 -147.55 102.4 -157.4 55.3 -190.6 -5.65 -190.6 Z"/>
</g>

<g id="hover_0_Layer0_5_FILL">
<path fill="url(#Gradient_3)" stroke="none" d="
M -169.3 97.1
Q -170.7 94.7 -172.05 92.3 -189.3 61.4 -195 29.1
L -226.05 46.15
Q -218.65 78.05 -201.5 108.8 -200 111.45 -198.5 114
L -169.3 97.1
M 218.55 -89.05
L 189.4 -70.35
Q 210.3 -12.75 192.75 49.4 170.3 128.65 98.45 168.85 26.65 208.95 -52.6 186.55 -102.3 172.5 -136.65 139
L -165.75 157.7
Q -124.15 201.5 -61.8 219.15 30.9 245.4 115 198.3 199.1 151.3 225.35 58.6 247.05 -18.2 218.55 -89.05
M 121.45 -164
L 153.85 -181.4
Q 116.45 -213.9 64.85 -228.5 -27.85 -254.75 -111.95 -207.7 -196.05 -160.7 -222.25 -68 -235.75 -20.35 -229.9 25
L -197.55 7.55
Q -199.4 -24.95 -189.8 -58.85 -167.4 -138.1 -95.5 -178.2 -23.6 -218.4 55.6 -195.95 92.9 -185.4 121.45 -164
M 90.45 154.55
Q 156.45 117.7 177.05 44.95 192.6 -10.05 175.3 -61.3
L -122.4 129.9
Q -91.75 158.5 -48.2 170.8 24.55 191.4 90.45 154.55
M 160.4 -94.25
Q 143.95 -123.5 120.4 -143.85
L -179.75 20.75
Q -175.1 53.3 -157.75 84.3 -156.45 86.65 -155.1 88.85
L 160.4 -94.25
M 105.35 -155.3
Q 81.35 -171.65 51.1 -180.25 -21.6 -200.8 -87.5 -163.95 -153.5 -127.05 -174.05 -54.35 -181.75 -27.2 -181.4 -1.05
L 105.35 -155.3 Z"/>

<path fill="url(#Gradient_4)" stroke="none" d="
M 174.55 -102.45
L 203.85 -119.45
Q 187.9 -147.6 166.8 -169.2
L 135.65 -152.15
Q 158.3 -131.35 174.55 -102.45 Z"/>

<path fill="#FFFBE2" stroke="none" d="
M 153.85 -181.4
L 121.45 -164
Q 92.9 -185.4 55.6 -195.95 -23.6 -218.4 -95.5 -178.2 -167.4 -138.1 -189.8 -58.85 -199.4 -24.95 -197.55 7.55
L -229.9 25
Q -228.5 35.65 -226.05 46.15
L -195 29.1
Q -189.3 61.4 -172.05 92.3 -170.7 94.7 -169.3 97.1
L -198.5 114
Q -184.15 138.35 -165.75 157.7
L -136.65 139
Q -102.3 172.5 -52.6 186.55 26.65 208.95 98.45 168.85 170.3 128.65 192.75 49.4 210.3 -12.75 189.4 -70.35
L 218.55 -89.05
Q 212.65 -103.75 204.55 -118.2 204.25 -118.8 203.85 -119.45
L 174.55 -102.45
Q 158.3 -131.35 135.65 -152.15
L 166.8 -169.2
Q 160.55 -175.6 153.85 -181.4
M 113.45 -159.65
Q 121.05 -154.25 128 -148 151.1 -127.4 167.5 -98.35 167.7 -98 167.9 -97.65 176.7 -81.9 182.4 -65.8 201.5 -11.4 184.9 47.2 163.4 123.15 94.5 161.7 25.55 200.25 -50.4 178.75 -97.05 165.55 -129.5 134.5 -148.2 116.65 -162.2 92.95 -163.55 90.65 -164.9 88.3 -182.2 57.3 -187.35 24.95 -189.15 14.2 -189.5 3.25 -190.55 -26.1 -181.9 -56.6 -160.4 -132.6 -91.5 -171.05 -22.55 -209.6 53.4 -188.1 87.1 -178.55 113.45 -159.65
M 160.7 -93.7
Q 160.55 -93.95 160.4 -94.25
L -155.1 88.85
Q -141.15 112.4 -122.4 129.9
L 175.3 -61.3
Q 169.65 -77.65 160.7 -93.7
M 120.4 -143.85
Q 113.15 -149.95 105.35 -155.3
L -181.4 -1.05
Q -181.3 9.9 -179.75 20.75
L 120.4 -143.85 Z"/>

<path fill="#AE6B39" stroke="none" d="
M 128 -148
Q 121.05 -154.25 113.45 -159.65 87.1 -178.55 53.4 -188.1 -22.55 -209.6 -91.5 -171.05 -160.4 -132.6 -181.9 -56.6 -190.55 -26.1 -189.5 3.25 -189.15 14.2 -187.35 24.95 -182.2 57.3 -164.9 88.3 -163.55 90.65 -162.2 92.95 -148.2 116.65 -129.5 134.5 -97.05 165.55 -50.4 178.75 25.55 200.25 94.5 161.7 163.4 123.15 184.9 47.2 201.5 -11.4 182.4 -65.8 176.7 -81.9 167.9 -97.65 167.7 -98 167.5 -98.35 151.1 -127.4 128 -148
M 105.35 -155.3
Q 113.15 -149.95 120.4 -143.85 143.95 -123.5 160.4 -94.25 160.55 -93.95 160.7 -93.7 169.65 -77.65 175.3 -61.3 192.6 -10.05 177.05 44.95 156.45 117.7 90.45 154.55 24.55 191.4 -48.2 170.8 -91.75 158.5 -122.4 129.9 -141.15 112.4 -155.1 88.85 -156.45 86.65 -157.75 84.3 -175.1 53.3 -179.75 20.75 -181.3 9.9 -181.4 -1.05 -181.75 -27.2 -174.05 -54.35 -153.5 -127.05 -87.5 -163.95 -21.6 -200.8 51.1 -180.25 81.35 -171.65 105.35 -155.3 Z"/>
</g>

<g id="hover_0_Layer0_6_FILL">
<path fill="#AE6B39" stroke="none" d="
M 118.05 -116.2
Q 114.25 -121.75 107.3 -122.8 100.35 -123.8 94.4 -119.7
L -140 41.5
Q -145.95 45.6 -147.5 52.45 -149 59.3 -145.2 64.85
L -111.95 113.2
Q -108.15 118.7 -101.2 119.75 -94.25 120.8 -88.3 116.7
L 146.1 -44.5
Q 152.05 -48.6 153.6 -55.5 155.1 -62.35 151.3 -67.85
L 118.05 -116.2 Z"/>
</g>

<g id="hover_0_Layer0_7_FILL">
<path fill="url(#Gradient_5)" stroke="none" d="
M 141.95 -34.05
Q 155.8 -44.5 149.7 -59.55
L 120.05 -104.5 -137.4 76 -104.75 123.45
Q -101.25 128.55 -95.05 129.85
L 141.95 -34.05 Z"/>

<path fill="#FFFBE2" stroke="none" d="
M 114.75 -112.5
Q 114.6 -112.5 114.5 -112.55 107.55 -113.55 101.6 -109.45
L -132.8 51.8
Q -138.8 55.9 -140.3 62.7 -141.8 69.55 -138 75.1
L -137.4 76 120.05 -104.5 149.7 -59.55
Q 155.8 -44.5 141.95 -34.05
L -95.05 129.85
Q -94.55 129.95 -94 130 -87.1 131.05 -81.1 126.95
L 153.3 -34.25
Q 159.25 -38.35 160.8 -45.25 162.3 -52.05 158.5 -57.6
L 125.2 -105.95
Q 124.7 -106.7 124.15 -107.4 120.55 -111.55 114.75 -112.5 Z"/>
</g>

<path id="hover_0_Layer0_0_1_STROKES" stroke="#864300" stroke-width="6" stroke-linejoin="round" stroke-linecap="round" fill="none" d="
M 61.81892242431641 -217.6654235839844
Q -30.887599182128895 -243.89273605346682 -114.97896041870116 -196.8681770324707 -199.08811111450197 -149.8754440307617 -225.3154235839844 -57.16892242431641 -238.7909872978926 -9.536415660381328 -232.9250431060791 35.834523010253896 -231.55160008370876 46.482490453124036 -229.10912055969237 57.00901794433593 -221.71342641115191 88.90336886644366 -204.5251953125 119.653768157959 -203.0561056345701 122.28202547729018 -201.54758110046384 124.85006027221681 -187.1832469254732 149.24855212867263 -168.80575103759764 168.55568351745603 -127.1400334596634 212.33435271382334 -64.81892242431641 229.9654235839844 27.887599182128895 256.19273605346683 111.99674987792969 209.20000305175782 196.08811111450197 162.17544403076172 222.3154235839844 69.46892242431642 244.0433331757784 -7.333415687084203 215.50954093933106 -78.22523384094235 209.60598767697812 -92.89692321717736 201.54298477172853 -107.32194213867186 201.1828177124262 -107.96629470884801 200.82251167297366 -108.61089591979982 184.8739022940397 -136.78058220148083 163.74444122314452 -158.39285125732422 157.52256761789323 -164.7560602426529 150.8524280548096 -170.54695014953614 113.41049242019653 -203.06981365680696 61.81892242431641 -217.6654235839844 Z
M 50.336528778076165 -177.26765289306638
Q -25.624768829345697 -198.75762634277342 -94.53511886596678 -160.21863937377933 -163.45624008178712 -121.73628616333008 -184.95323181152344 -45.75018081665039 -193.58143948316575 -15.251778745651242 -192.5391399383545 14.116711425781242 -192.1446084201336 25.029987582564353 -190.4182334899902 35.789628601074234 -185.22170071303844 68.17719571292402 -167.9112365722656 99.14627456665038 -166.59877752363684 101.49431373178959 -165.24493789672852 103.78561134338378 -151.23241774737835 127.48025901019574 -132.5796283721924 145.29933242797853 -100.06200257539749 176.34869504272936 -53.43575973510742 189.5395797729492 22.52553787231446 211.02955322265623 91.45367736816408 172.5223922729492 160.36402740478516 133.98340530395507 181.8540008544922 58.022107696533205 198.43498899042606 -0.5872422575950562 179.30822601318357 -54.961864471435554 173.63900162875655 -71.09112719893454 164.8297950744629 -86.84252166748048 164.64279728233814 -87.17706783115861 164.45621643066406 -87.51086807250974 148.07859141826629 -116.57505787312985 125.00581512451173 -137.14677772521972 118.02604044079781 -143.36960077881812 110.43469886779785 -148.81134910583492 84.07641084194182 -167.72240824103352 50.336528778076165 -177.26765289306638 Z"/>

<path id="hover_0_Layer0_1_1_STROKES" stroke="#864300" stroke-width="6" stroke-linejoin="round" stroke-linecap="round" fill="none" d="
M 218.50954093933106 -89.02523384094236
Q 212.60598767697812 -103.69692321717737 204.54298477172853 -118.12194213867187 204.1828177124262 -118.76629470884802 203.82251167297366 -119.41089591979983 187.8739022940397 -147.58058220148084 166.74444122314452 -169.19285125732424 160.52256761789323 -175.5560602426529 153.8524280548096 -181.34695014953616 116.41049242019653 -213.86981365680697 64.81892242431641 -228.4654235839844 -27.887599182128895 -254.69273605346683 -111.97896041870116 -207.6681770324707 -196.08811111450197 -160.67544403076172 -222.3154235839844 -67.96892242431642 -235.7909872978926 -20.336415660381327 -229.9250431060791 25.0345230102539 -228.55160008370876 35.68249045312404 -226.10912055969237 46.20901794433593 -218.71342641115191 78.10336886644365 -201.5251953125 108.85376815795898 -200.0561056345701 111.48202547729016 -198.54758110046384 114.0500602722168 -184.1832469254732 138.44855212867262 -165.80575103759764 157.75568351745602 -124.1400334596634 201.53435271382332 -61.81892242431641 219.1654235839844 30.887599182128895 245.39273605346682 114.99674987792969 198.4000030517578 199.08811111450197 151.3754440307617 225.3154235839844 58.66892242431641 247.0433331757784 -18.133415687084202 218.50954093933106 -89.02523384094236 Z
M 53.336528778076165 -188.0676528930664
Q -22.624768829345697 -209.55762634277343 -91.53511886596678 -171.01863937377934 -160.45624008178712 -132.5362861633301 -181.95323181152344 -56.55018081665039 -190.58143948316575 -26.05177874565124 -189.5391399383545 3.316711425781241 -189.1446084201336 14.229987582564354 -187.4182334899902 24.989628601074237 -182.22170071303844 57.37719571292401 -164.9112365722656 88.34627456665037 -163.59877752363684 90.69431373178958 -162.24493789672852 92.98561134338377 -148.23241774737835 116.68025901019573 -129.5796283721924 134.49933242797852 -97.06200257539749 165.54869504272935 -50.43575973510742 178.73957977294918 25.52553787231446 200.22955322265622 94.45367736816408 161.72239227294918 163.36402740478516 123.18340530395507 184.8540008544922 47.22210769653321 201.43498899042606 -11.387242257595057 182.30822601318357 -65.76186447143556 176.63900162875655 -81.89112719893456 167.8297950744629 -97.6425216674805 167.64279728233814 -97.97706783115862 167.45621643066406 -98.31086807250975 151.07859141826629 -127.37505787312986 128.00581512451174 -147.94677772521973 121.02604044079781 -154.16960077881814 113.43469886779785 -159.61134910583493 87.07641084194182 -178.52240824103353 53.336528778076165 -188.0676528930664 Z"/>

<path id="hover_0_Layer0_2_1_STROKES" stroke="#864300" stroke-width="6" stroke-linejoin="round" stroke-linecap="round" fill="none" d="
M 143.92104721069336 -81.149649810791
L 106.46246795654298 -126.29387054443359
Q 102.16748657226563 -131.47008361816407 95.18593521118164 -131.8656120300293 88.17129592895508 -132.26301498413085 82.60607681274415 -127.64541549682616
L -136.28631668090821 53.974999237060544
Q -141.85153579711914 58.59259872436523 -142.73651962280272 65.54451370239258 -143.65459136962892 72.4945541381836 -139.35960998535157 77.67076721191407
L -101.90103073120117 122.81498794555665
Q -97.60604934692384 127.9912010192871 -90.59141006469726 128.38860397338868 -83.60985870361327 128.7841323852539 -78.04463958740234 124.16653289794922
L 140.84775390625 -57.4538818359375
Q 146.41297302246093 -62.07148132324219 147.3310447692871 -69.0215217590332 148.2160285949707 -75.97343673706054 143.92104721069336 -81.149649810791 Z"/>

<path id="hover_0_Layer0_3_1_STROKES" stroke="#864300" stroke-width="6" stroke-linejoin="round" stroke-linecap="round" fill="none" d="
M -110.53342132568358 112.30397529602048
L -109.86378250122071 113.10966567993165
Q -105.56882400512696 118.29014129638671 -98.5558868408203 118.69334716796874 -91.5925651550293 119.0825164794922 -86.02691192626953 114.4678352355957
L 132.8920471191406 -67.14920959472657
Q 138.4577003479004 -71.76389083862307 139.38513412475584 -78.73569335937502 139.40210938453674 -78.86820639371874 139.4181053161621 -78.99429817199709 140.08435372412205 -84.82498033344746 137.05731773376465 -89.40153083801269 136.5630663484335 -90.14054313898086 135.97876510620117 -90.8453742980957
L 98.51783523559571 -136.0066329956055
Q 94.21585845947266 -141.16230087280272 87.23474731445313 -141.5832962036133 80.2147918701172 -141.96169433593752 74.64913864135742 -137.347013092041
L -144.26982040405272 44.270031738281254
Q -149.83547363281252 48.884712982177746 -150.70627365112304 55.84574432373047 -150.77743576467037 56.382514145970354 -150.82036895751952 56.91198959350587 -151.2942744731903 63.191136178374286 -147.3247123718262 67.94840698242189
L -110.53342132568358 112.30397529602048 Z"/>

<path id="hover_0_Layer0_4_1_STROKES" stroke="#864300" stroke-width="6" stroke-linejoin="round" stroke-linecap="round" fill="none" d="
M 50.306358337402344 -177.24593963623047
Q -25.6488037109375 -198.73504638671875 -94.58182983398437 -160.20522766113282 -163.5012466430664 -121.7235122680664 -185.00396270751952 -45.720246887207026 -193.63226776123048 -15.222734069824213 -192.5812744140625 14.11670532226563 -192.20269775390625 25.08212585449219 -190.4582260131836 35.81053924560547 -185.279248046875 68.18819274902344 -167.96325073242187 99.16794128417969 -166.65247802734373 101.51302185058594 -165.27999267578124 103.8236083984375 -151.2583023071289 127.53299102783203 -132.60302734375 145.3317413330078 -100.13850250244141 176.3890396118164 -53.4782699584961 189.59007415771484 22.476892089843744 211.0791809082031 91.40991821289063 172.5493621826172 160.3429443359375 134.01954345703126 181.8320510864258 58.0643814086914 198.42180480957032 -0.5735809326171903 179.30116577148436 -54.92350463867187 173.62180786132814 -71.0253692626953 164.7913391113281 -86.82380676269531 164.61886901855468 -87.13236999511719 164.41190490722656 -87.50264587402343 148.05540618896484 -116.54841766357421 124.93636474609374 -137.11670532226563 117.9709686279297 -143.34754333496093 110.37577819824219 -148.82139587402344 84.02679443359375 -167.705810546875 50.306358337402344 -177.24593963623047 Z"/>

<path id="hover_0_Layer0_4_2_STROKES" stroke="#AE6B39" stroke-width="6" stroke-linejoin="round" stroke-linecap="round" fill="none" d="
M 61.786285400390625 -217.63912963867188
Q -30.908836364746094 -243.8642776489258 -115.02317352294922 -196.84893035888672 -199.13751068115235 -149.83358306884764 -225.36265869140624 -57.13846130371094 -238.83587951660155 -9.516162109375003 -232.9641128540039 35.83809356689453 -231.56997375488282 46.519345092773435 -229.13938751220704 57.0262435913086 -221.75048065185547 88.93809967041015 -204.57245941162108 119.6709976196289 -203.08921661376954 122.32464141845703 -201.5787551879883 124.8820785522461 -187.2257339477539 149.2566909790039 -168.84803771972656 168.58747253417968 -127.20390930175782 212.37281188964843 -64.86199035644532 230.01048278808594 27.8331314086914 256.23563079833986 111.94746856689453 209.22028350830078 196.06180572509766 162.2049362182617 222.28695373535157 69.509814453125 244.02102813720703 -7.311207580566403 215.44996948242186 -78.20645446777344 209.56835479736327 -92.8588851928711 201.49675445556642 -107.29964447021484 201.15181427001954 -107.9167709350586 200.77238006591796 -108.59561004638672 184.8370849609375 -136.74291076660157 163.7273422241211 -158.3532943725586 157.48255462646483 -164.74393463134766 150.8067199707031 -170.5291748046875 113.40116119384766 -203.03633575439454 61.786285400390625 -217.63912963867188 Z"/>

<path id="hover_0_Layer0_5_1_STROKES" stroke="#AE6B39" stroke-width="6" stroke-linejoin="round" stroke-linecap="round" fill="none" d="
M 53.4 -188.1
Q -22.55 -209.6 -91.5 -171.05 -160.4 -132.6 -181.9 -56.6 -190.55 -26.1 -189.5 3.25 -189.15 14.2 -187.35 24.95 -182.2 57.3 -164.9 88.3 -163.55 90.65 -162.2 92.95 -148.2 116.65 -129.5 134.5 -97.05 165.55 -50.4 178.75 25.55 200.25 94.5 161.7 163.4 123.15 184.9 47.2 201.5 -11.4 182.4 -65.8 176.7 -81.9 167.9 -97.65 167.7 -98 167.5 -98.35 151.1 -127.4 128 -148 121.05 -154.25 113.45 -159.65 87.1 -178.55 53.4 -188.1 Z
M -229.9 25
Q -228.5 35.65 -226.05 46.15
M -198.5 114
Q -184.15 138.35 -165.75 157.7
M 218.55 -89.05
Q 212.65 -103.75 204.55 -118.2 204.25 -118.8 203.85 -119.45
M 166.8 -169.2
Q 160.55 -175.6 153.85 -181.4 116.45 -213.9 64.85 -228.5 -27.85 -254.75 -111.95 -207.7 -196.05 -160.7 -222.25 -68 -235.75 -20.35 -229.9 25
M 203.85 -119.45
Q 187.9 -147.6 166.8 -169.2
M -165.75 157.7
Q -124.15 201.5 -61.8 219.15 30.9 245.4 115 198.3 199.1 151.3 225.35 58.6 247.05 -18.2 218.55 -89.05
M -226.05 46.15
Q -218.65 78.05 -201.5 108.8 -200 111.45 -198.5 114"/>

<path id="hover_0_Layer0_6_1_STROKES" stroke="#AE6B39" stroke-width="6" stroke-linejoin="round" stroke-linecap="round" fill="none" d="
M 143.92373504638672 -81.19392242431641
L 106.4580062866211 -126.3428451538086
Q 102.20094757080078 -131.49572296142577 95.20251159667968 -131.91709899902344 88.14236297607422 -132.3039810180664 82.57838134765625 -127.69564819335938
L -136.3072265625 53.936346435546874
Q -141.87120819091797 58.54467926025391 -142.7527328491211 65.51683807373047 -143.6342575073242 72.48899688720704 -139.3771987915039 77.64187469482422
L -101.91147003173828 122.79079742431641
Q -97.60630798339844 127.95728454589843 -90.60787200927734 128.3786605834961 -83.5958267211914 128.7519332885742 -78.03184509277344 124.14360046386719
L 140.8537628173828 -57.48839416503906
Q 146.4177444458008 -62.096726989746095 147.34737243652344 -69.0552764892578 148.22889709472656 -76.02743530273438 143.92373504638672 -81.19392242431641 Z"/>

<path id="hover_0_Layer0_7_1_STROKES" stroke="#AE6B39" stroke-width="6" stroke-linejoin="round" stroke-linecap="round" fill="none" d="
M -110.51546020507813 112.25180053710938
L -109.81291198730469 113.07400817871094
Q -105.50774993896485 118.24049530029296 -98.50931396484376 118.66187133789063 -91.5589813232422 119.06963806152343 -85.98139038085938 114.4132019042969
L 132.95232086181642 -67.20518341064454
Q 138.51630249023438 -71.81351623535156 139.44593048095703 -78.77206573486328 139.4250457763672 -78.88188171386719 139.46587371826172 -79.02619171142578 140.1305908203125 -84.86475524902343 137.11788482666014 -89.45776824951172 136.594140625 -90.17743530273438 136.00868377685546 -90.86260833740235
L 98.55656433105469 -136.05963439941405
Q 94.25140228271485 -141.2261215209961 87.30106964111329 -141.6338882446289 80.24092102050781 -142.02077026367186 74.67693939208985 -137.41243743896484
L -144.20866851806642 44.219557189941405
Q -149.78625946044923 48.87599334716796 -150.6541748046875 55.800048828125 -150.75577392578123 56.34279479980469 -150.79566040039063 56.85104675292969 -151.23252868652344 63.169702148437494 -147.2786407470703 67.92508544921876
L -110.51546020507813 112.25180053710938 Z"/>
</defs>

<g transform="matrix( 1.4930267333984375, 0, 0, 1.4930267333984375, 959.95,538.9) ">
<g transform="matrix( 0.1403656005859375, -0.49615478515625, -0.49615478515625, -0.1403656005859375, -1.5,6.15) ">
<use xlink:href="#hover_0_Layer0_0_FILL"/>

<use xlink:href="#hover_0_Layer0_0_1_STROKES" transform="matrix( 0.5279388427734375, -1.8661346435546875, -1.8661346435546875, -0.5279388427734375, 12.25,0.4) "/>
</g>

<g transform="matrix( 0.1403656005859375, -0.49615478515625, -0.49615478515625, -0.1403656005859375, 1.5,-4.65) ">
<use xlink:href="#hover_0_Layer0_1_FILL"/>

<use xlink:href="#hover_0_Layer0_1_1_STROKES" transform="matrix( 0.5279388427734375, -1.8661346435546875, -1.8661346435546875, -0.5279388427734375, -9.45,0.3) "/>
</g>

<g transform="matrix( -0.2882537841796875, -0.3473968505859375, -0.373504638671875, 0.309906005859375, 1.4,-5.1) ">
<use xlink:href="#hover_0_Layer0_2_FILL"/>

<use xlink:href="#hover_0_Layer0_2_1_STROKES" transform="matrix( -1.4145355224609375, -1.585662841796875, -1.7048187255859375, 1.315704345703125, -6.7,8.9) "/>
</g>

<g transform="matrix( 0.1403656005859375, -0.49615478515625, -0.49615478515625, -0.1403656005859375, 1.5,-4.65) ">
<use xlink:href="#hover_0_Layer0_3_FILL"/>

<use xlink:href="#hover_0_Layer0_3_1_STROKES" transform="matrix( 0.5279388427734375, -1.8661346435546875, -1.8661346435546875, -0.5279388427734375, -9.45,0.3) "/>
</g>

<g transform="matrix( 0.272186279296875, -0.962066650390625, -0.962066650390625, -0.272186279296875, 0,0.75) ">
<use xlink:href="#hover_0_Layer0_4_FILL"/>

<use xlink:href="#hover_0_Layer0_4_1_STROKES" transform="matrix( 0.27227783203125, -0.9623870849609375, -0.9623870849609375, -0.27227783203125, 0.7,0.2) "/>

<use xlink:href="#hover_0_Layer0_4_2_STROKES" transform="matrix( 0.27227783203125, -0.9623870849609375, -0.9623870849609375, -0.27227783203125, 0.7,0.2) "/>
</g>

<g transform="matrix( 1, 0, 0, 1, 0,0) ">
<use xlink:href="#hover_0_Layer0_5_FILL"/>

<use xlink:href="#hover_0_Layer0_5_1_STROKES"/>
</g>

<g transform="matrix( 0.272186279296875, -0.962066650390625, -0.962066650390625, -0.272186279296875, 0,0.75) ">
<use xlink:href="#hover_0_Layer0_6_FILL"/>

<use xlink:href="#hover_0_Layer0_6_1_STROKES" transform="matrix( 0.27227783203125, -0.9623870849609375, -0.9623870849609375, -0.27227783203125, 0.7,0.2) "/>
</g>

<g transform="matrix( 0.272186279296875, -0.962066650390625, -0.962066650390625, -0.272186279296875, 0,0.75) ">
<use xlink:href="#hover_0_Layer0_7_FILL"/>

<use xlink:href="#hover_0_Layer0_7_1_STROKES" transform="matrix( 0.27227783203125, -0.9623870849609375, -0.9623870849609375, -0.27227783203125, 0.7,0.2) "/>
</g>
</g>
</svg>
