
<svg xmlns="http://www.w3.org/2000/svg" version="1.1" xmlns:xlink="http://www.w3.org/1999/xlink" preserveAspectRatio="none" x="0px" y="0px" width="1920px" height="1080px" viewBox="0 0 1920 1080">
<defs>
<linearGradient id="Gradient_1" gradientUnits="userSpaceOnUse" x1="-38.375" y1="-58.487500000000004" x2="-23.625" y2="46.7875" spreadMethod="pad">
<stop  offset="0%" stop-color="#FFE44E"/>

<stop  offset="0%" stop-color="#FFE44E"/>

<stop  offset="50.19607843137255%" stop-color="#FFF6C3"/>

<stop  offset="100%" stop-color="#FFE44E"/>
</linearGradient>

<linearGradient id="Gradient_2" gradientUnits="userSpaceOnUse" x1="0" y1="0" x2="0" y2="0" spreadMethod="pad">
<stop  offset="0%" stop-color="#FFE44E"/>

<stop  offset="0%" stop-color="#FFE44E"/>

<stop  offset="50.19607843137255%" stop-color="#FFF6C3"/>

<stop  offset="100%" stop-color="#FFE44E"/>
</linearGradient>

<g id="hover_1_Layer0_0_FILL">
<path fill="#FFE765" stroke="none" d="
M -178.5 31.85
Q -191.1 29.85 -201.5 27.75 -221.15 23.75 -233.3 19.25 -238.1578125 17.452734375 -241.85 15.55
L -241.85 27.9
Q -241.8376953125 28.5322265625 -241.75 29.1 -240.2791015625 38.1763671875 -219.55 45.8 -201.9806640625 52.3166015625 -170.6 57.8 -99.3 70.25 1.45 70.25 102.25 70.25 173.5 57.8 194.31640625 54.1626953125 209.05 50.05
L 209.05 26.8
Q 196.871875 29.4341796875 181.55 31.85 107 43.7 1.5 43.7 -48.55 43.7 -91.6 41.05 -139.35 38.05 -178.5 31.85 Z"/>

<path fill="url(#Gradient_1)" stroke="none" d="
M -28.4 26.9
L -87.6 32.75
Q -46.3853515625 35.45 1.45 35.45 102.25 35.45 173.5 23.6 208.0583984375 17.8765625 225.85 11 239.0892578125 5.86953125 243.05 0.1
L 178.7 6.45
Q 164.6958984375 12.4728515625 136.7 17.45 80.7 27.3 1.5 27.3 -13.870703125 27.3 -28.4 26.9
M -237.25 -13.15
Q -241.85 -9.202734375 -241.85 -4.95 -241.85 -4.451953125 -241.8 -3.95 -240.7587890625 4.0986328125 -222.95 11 -211.326953125 15.4923828125 -192.55 19.5
L -139.9 16.3
Q -177.248828125 9.101171875 -186.5 -0.15 -187.3 -0.9 -187.85 -1.7 -189.6 -4.1 -189.6 -6.5 -189.6 -9.8822265625 -186.3 -13.05
L -237.25 -13.15
M 192.6 -6.5
Q 192.6 -5.183984375 192.1 -3.9
L 244.45 -7.05
Q 243.75859375 -9.607421875 241.3 -12.05
L 190.15 -12.15
Q 192.6 -9.41640625 192.6 -6.5
M 158.35 -12.25
Q 146.599609375 -15.2400390625 128.95 -17.9 115.1611328125 -19.9630859375 99.85 -21.5 56.641796875 -25.8 1.45 -25.8 -36.85859375 -25.8 -69.45 -23.75 -100.289453125 -21.7431640625 -126 -17.9 -141.5017578125 -15.563671875 -152.45 -12.95 -172.2234375 -8.227734375 -177.15 -2.6 -176.583984375 -1.973046875 -175.85 -1.35 -166.3810546875 6.65234375 -126 12.7 -119.1865234375 13.7185546875 -112 14.6 -63.532421875 20.6 1.45 20.6 22.7294921875 20.6 42.2 19.95 91.191015625 18.349609375 128.95 12.7 138.8560546875 11.21640625 146.9 9.6 171.63984375 4.690625 178.8 -1.35 179.5341796875 -1.972265625 180.05 -2.6 179.8486328125 -2.8599609375 179.6 -3.15 174.6904296875 -8.0177734375 158.35 -12.25
M 1.5 -40.3
Q 80.7 -40.3 136.7 -30.4 162.253125 -25.8515625 176.1 -20.5
L 228.5 -19.8
Q 210.7427734375 -27.305859375 173.5 -33.5 102.25 -45.3 1.45 -45.3 -99.3 -45.3 -170.6 -33.5 -193.0396484375 -29.76796875 -208.4 -25.55
L -159.2 -24.9
Q -148.3400390625 -27.7875 -133.65 -30.4 -77.6 -40.3 1.5 -40.3 Z"/>

<path fill="#C8B758" stroke="none" d="
M 244.85 -4.95
L 244.75 -4.95
Q 244.75 -2.36640625 243.05 0.1 239.0892578125 5.86953125 225.85 11 208.0583984375 17.8765625 173.5 23.6 102.25 35.45 1.45 35.45 -46.3853515625 35.45 -87.6 32.75 -133.152734375 29.8236328125 -170.6 23.6 -182.5818359375 21.615625 -192.55 19.5 -211.326953125 15.4923828125 -222.95 11 -240.7587890625 4.0986328125 -241.8 -3.95
L -241.85 15.55
Q -238.1578125 17.452734375 -233.3 19.25 -221.15 23.75 -201.5 27.75 -191.1 29.85 -178.5 31.85 -139.35 38.05 -91.6 41.05 -48.55 43.7 1.5 43.7 107 43.7 181.55 31.85 196.871875 29.4341796875 209.05 26.8
L 209.05 50.05
Q 244.75 40.2080078125 244.75 27.75 244.75 27.477734375 244.7 27.2
L 244.85 -4.95 Z"/>

<path fill="#FFFBE2" stroke="none" d="
M 136.7 -30.4
Q 80.7 -40.3 1.5 -40.3 -77.6 -40.3 -133.65 -30.4 -148.3400390625 -27.7875 -159.2 -24.9
L -208.4 -25.55
Q -229.4154296875 -19.7953125 -237.25 -13.15
L -186.3 -13.05
Q -189.6 -9.8822265625 -189.6 -6.5 -189.6 -4.1 -187.85 -1.7 -187.3 -0.9 -186.5 -0.15 -177.248828125 9.101171875 -139.9 16.3
L -192.55 19.5
Q -182.5818359375 21.615625 -170.6 23.6 -133.152734375 29.8236328125 -87.6 32.75
L -28.4 26.9
Q -13.870703125 27.3 1.5 27.3 80.7 27.3 136.7 17.45 164.6958984375 12.4728515625 178.7 6.45
L 243.05 0.1
Q 244.75 -2.36640625 244.75 -4.95 244.75 -6.01015625 244.45 -7.05
L 192.1 -3.9
Q 192.6 -5.183984375 192.6 -6.5 192.6 -9.41640625 190.15 -12.15
L 241.3 -12.05
Q 237.2951171875 -16.0701171875 228.5 -19.8
L 176.1 -20.5
Q 162.253125 -25.8515625 136.7 -30.4
M 128.95 -25.55
Q 143.9935546875 -23.2828125 154.75 -20.75 171.6279296875 -16.7857421875 177.9 -12.2 181.7 -9.4287109375 181.7 -6.45 181.7 -4.7763671875 180.5 -3.2 180.3216796875 -2.8849609375 180.05 -2.6 179.5341796875 -1.972265625 178.8 -1.35 171.63984375 4.690625 146.9 9.6 138.8560546875 11.21640625 128.95 12.7 91.191015625 18.349609375 42.2 19.95 22.7294921875 20.6 1.45 20.6 -63.532421875 20.6 -112 14.6 -119.1865234375 13.7185546875 -126 12.7 -166.3810546875 6.65234375 -175.85 -1.35 -176.583984375 -1.973046875 -177.15 -2.6 -178.75 -4.4796875 -178.75 -6.45 -178.75 -9.8765625 -173.8 -13 -163.5501953125 -19.410546875 -132.4 -24.55 -129.2896484375 -25.054296875 -126 -25.55 -73.15 -33.45 1.45 -33.45 76.15 -33.45 128.95 -25.55 Z"/>

<path fill="#AE6B39" stroke="none" d="
M 154.75 -20.75
Q 143.9935546875 -23.2828125 128.95 -25.55 76.15 -33.45 1.45 -33.45 -73.15 -33.45 -126 -25.55 -129.2896484375 -25.054296875 -132.4 -24.55 -163.5501953125 -19.410546875 -173.8 -13 -178.75 -9.8765625 -178.75 -6.45 -178.75 -4.4796875 -177.15 -2.6 -172.2234375 -8.227734375 -152.45 -12.95 -141.5017578125 -15.563671875 -126 -17.9 -100.289453125 -21.7431640625 -69.45 -23.75 -36.85859375 -25.8 1.45 -25.8 56.641796875 -25.8 99.85 -21.5 115.1611328125 -19.9630859375 128.95 -17.9 146.599609375 -15.2400390625 158.35 -12.25 174.6904296875 -8.0177734375 179.6 -3.15 179.8486328125 -2.8599609375 180.05 -2.6 180.3216796875 -2.8849609375 180.5 -3.2 181.7 -4.7763671875 181.7 -6.45 181.7 -9.4287109375 177.9 -12.2 171.6279296875 -16.7857421875 154.75 -20.75 Z"/>
</g>

<g id="hover_1_Layer0_1_FILL">
<path fill="url(#Gradient_2)" stroke="none" d="
M 131.25 -7.3
Q 130.804296875 -7.63203125 130.25 -7.9
L 65.5 -18.75 -132.6 -10.5
Q -133.43984375 -10.275 -134.1 -9.95
L -93.1 -0.35
Q 20.652734375 -3.362890625 131.25 -7.3 Z"/>

<path fill="#AE6B39" stroke="none" d="
M 132.25 -0.65
Q 134.125390625 -5.189453125 131.25 -7.3 20.652734375 -3.362890625 -93.1 -0.35
L -134.1 -9.95
Q -137.264453125 -8.1333984375 -135.5 -3.05
L -94.1 7.7 132.25 -0.65 Z"/>
</g>

<path id="hover_1_Layer0_0_1_STROKES" stroke="#AE6B39" stroke-width="6" stroke-linejoin="round" stroke-linecap="round" fill="none" d="
M -177.125 -2.6
Q -178.75 -4.4796875 -178.75 -6.45 -178.75 -9.8765625 -173.775 -13 -163.5501953125 -19.410546875 -132.375 -24.55 -129.2896484375 -25.054296875 -126 -25.55 -73.15 -33.45 1.45 -33.45 76.15 -33.45 128.95 -25.55 143.9935546875 -23.2828125 154.75 -20.75 171.6279296875 -16.7857421875 177.925 -12.175 181.7 -9.4287109375 181.7 -6.45 181.7 -4.7763671875 180.525 -3.175 180.3216796875 -2.8849609375 180.075 -2.6 179.5341796875 -1.972265625 178.8 -1.35 171.63984375 4.690625 146.9 9.625 138.8560546875 11.21640625 128.95 12.7 91.191015625 18.349609375 42.225 19.95 22.7294921875 20.6 1.45 20.6 -63.532421875 20.6 -112 14.6 -119.1865234375 13.7185546875 -126 12.7 -166.3810546875 6.65234375 -175.85 -1.35 -176.583984375 -1.973046875 -177.125 -2.6 Z
M 228.525 -19.775
Q 210.7427734375 -27.305859375 173.5 -33.5 102.25 -45.3 1.45 -45.3 -99.3 -45.3 -170.6 -33.5 -193.0396484375 -29.76796875 -208.4 -25.55 -229.4154296875 -19.7953125 -237.225 -13.15
M -192.55 19.5
Q -182.5818359375 21.615625 -170.6 23.6 -133.152734375 29.8236328125 -87.575 32.775
M 243.05 0.1
Q 244.75 -2.36640625 244.75 -4.95 244.75 -6.01015625 244.475 -7.05
M 228.525 -19.775
Q 237.2951171875 -16.0701171875 241.325 -12.05
M 244.85 -7.6
L 244.85 -4.95 244.725 27.2
Q 244.75 27.477734375 244.75 27.75 244.75 40.2080078125 209.05 50.075 194.31640625 54.1626953125 173.5 57.8 102.25 70.25 1.45 70.25 -99.3 70.25 -170.6 57.8 -201.9806640625 52.3166015625 -219.55 45.825 -240.2791015625 38.1763671875 -241.75 29.125 -241.8376953125 28.5322265625 -241.85 27.925
L -241.825 15.575 -241.775 -3.95
Q -241.85 -4.451953125 -241.85 -4.95 -241.85 -9.202734375 -237.225 -13.15
M 241.325 -12.05
Q 243.75859375 -9.607421875 244.475 -7.05
M -192.55 19.5
Q -211.326953125 15.4923828125 -222.95 11 -240.7587890625 4.0986328125 -241.775 -3.95
M 243.05 0.1
Q 239.0892578125 5.86953125 225.85 11 208.0583984375 17.8765625 173.5 23.6 102.25 35.45 1.45 35.45 -46.3853515625 35.45 -87.575 32.775"/>

<path id="hover_1_Layer0_1_1_STROKES" stroke="#AE6B39" stroke-width="6" stroke-linejoin="round" stroke-linecap="round" fill="none" d="
M 131.25 -7.3
Q 134.125390625 -5.189453125 132.25 -0.65
L -94.1 7.7 -135.5 -3.05
Q -137.264453125 -8.1333984375 -134.075 -9.925 -133.43984375 -10.275 -132.6 -10.5
L 65.5 -18.75 130.25 -7.9
Q 130.804296875 -7.63203125 131.25 -7.3 Z"/>
</defs>

<g transform="matrix( 1.4930267333984375, 0, 0, 1.4930267333984375, 957.8,521.4) ">
<g transform="matrix( 1, 0, 0, 1, 0,0) ">
<use xlink:href="#hover_1_Layer0_0_FILL"/>

<use xlink:href="#hover_1_Layer0_0_1_STROKES"/>
</g>

<g transform="matrix( 1, 0, 0, 1, 0,0) ">
<use xlink:href="#hover_1_Layer0_1_FILL"/>

<use xlink:href="#hover_1_Layer0_1_1_STROKES"/>
</g>
</g>
</svg>
