<?xml version="1.0" encoding="UTF-8"?><svg id="Layer_2" xmlns="http://www.w3.org/2000/svg" xmlns:xlink="http://www.w3.org/1999/xlink" viewBox="0 0 267.24 256.64"><defs><style>.cls-1{fill:url(#radial-gradient);}.cls-1,.cls-2,.cls-3{stroke-width:0px;}.cls-2{fill:#705c07;}.cls-3{fill:#fff;}</style><radialGradient id="radial-gradient" cx="84.43" cy="79.15" fx="84.43" fy="79.15" r="128.55" gradientTransform="translate(88.4 31.91) rotate(27.34)" gradientUnits="userSpaceOnUse"><stop offset="0" stop-color="#fffc98"/><stop offset=".38" stop-color="#fff598"/><stop offset=".92" stop-color="#ffe298"/><stop offset="1" stop-color="#ffdf99"/></radialGradient></defs><g id="star"><g id="_1"><path class="cls-1" d="m226.13,218.99l-2.91-45.84c-.26-4.04,1.02-8.03,3.56-11.17l29.32-36.19c.25-.3.49-.6.73-.91l.18-.22h0c6-7.79,8.15-18.32,4.8-28.35-3.58-10.72-12.54-18.13-22.87-20.24l-44.42-11.11c-4.01-1-7.48-3.51-9.7-6.99l-24.91-39.19c-.2-.33-.41-.66-.63-.98l-.15-.24h0c-5.47-8.17-14.78-13.55-25.35-13.56-11.3-.01-21.17,6.12-26.46,15.24l-24.66,38.58c-2.22,3.48-5.7,5.97-9.71,6.97l-44.45,11.02c-10.34,2.09-19.31,9.47-22.92,20.18-3.37,10.02-1.26,20.56,4.73,28.36h0s.18.22.18.22c.24.31.48.61.73.91l29.23,36.26c2.54,3.15,3.8,7.14,3.54,11.18l-3.02,45.83c-1.15,10.48,3.16,21.27,12.27,27.96,8.52,6.26,19.21,7.44,28.45,4.1h0s.26-.1.26-.1c.36-.14.73-.27,1.09-.42l44.63-17.29c3.76-1.46,7.93-1.45,11.69.01l44.59,17.4c.36.15.72.29,1.09.42l.26.1h0c9.24,3.36,19.93,2.2,28.46-4.03,9.13-6.67,13.47-17.45,12.34-27.93ZM147.57,52.77c-6.61-4.13-15.71-16.63-15.07-25.59.14-1.93.89-3.79,2.2-5.21,6.36-6.88,18.9,1.52,21.78,9.05,2.35,4.65,3.55,9.82,3.14,15.03-.49,6.22-6.36,9.85-12.05,6.71Zm13.21,17.43c-5.87-3.03-1.15-12.13,4.71-9.1,5.87,3.03,1.15,12.13-4.71,9.1Zm37.01,21.95c-.99-1.19-1.65-2.64-1.91-4.16-1.99-11.59,18.35-10.58,26.1-8.24,5.88,1.95,13.51,7.85,10.03,14.92-5.32,9.8-27.34,5.73-34.22-2.52Zm1.95,122.98c-6.77-4.34-8.08-15.68-4.71-22.97.89-1.94,2.41-3.58,4.41-4.3,8.06-2.91,13.52,11.23,12.28,18.43-.73,5.74-5.53,12.22-11.99,8.83Z"/><path class="cls-3" d="m211.73,206.29c1.23-7.2-4.23-21.34-12.28-18.43-2.01.72-3.52,2.36-4.41,4.3-3.37,7.29-2.06,18.63,4.71,22.97,6.46,3.39,11.25-3.09,11.99-8.83Z"/><path class="cls-3" d="m221.98,79.75c-7.75-2.34-28.09-3.36-26.1,8.24.26,1.52.92,2.97,1.91,4.16,6.89,8.25,28.9,12.32,34.22,2.52,3.47-7.07-4.15-12.97-10.03-14.92Z"/><path class="cls-3" d="m159.62,46.05c.42-5.22-.79-10.38-3.14-15.03-2.88-7.53-15.41-15.93-21.78-9.05-1.31,1.42-2.06,3.28-2.2,5.21-.64,8.96,8.45,21.46,15.07,25.59,5.69,3.14,11.55-.5,12.05-6.71Z"/><path class="cls-3" d="m165.48,61.09c-5.86-3.03-10.58,6.07-4.71,9.1,5.86,3.03,10.58-6.07,4.71-9.1Z"/><path class="cls-2" d="m221.24,245.58l-.46.16c6.78-7.24,10.23-17.19,9.18-27.25l-2.8-44.17c-.05-.79-.02-1.57.04-2.35.03-2.16.63-4.25,1.74-6.09.5-.98,1.1-1.91,1.8-2.78l28.26-34.88c.29-.34.56-.68.8-.99l.23-.29c7.05-9.14,9.08-21.12,5.43-32.06-2.15-6.43-6.13-11.97-11.29-16.07-.36-.28-.72-.56-1.09-.82-.03-.02-.05-.04-.08-.06-1.35-.96-2.77-1.84-4.27-2.61-2.81-1.45-5.8-2.51-8.89-3.15l-44.34-11.09c-.91-.23-1.79-.56-2.63-.99-1.9-.98-3.52-2.46-4.67-4.27l-.48-.75c-.18-.26-.38-.51-.55-.77l-23.99-37.74c-.23-.38-.47-.75-.68-1.06l-.2-.32c-.94-1.4-1.98-2.71-3.09-3.94-.24-.27-.49-.54-.74-.79-.11-.11-.22-.23-.34-.34-2.51-2.51-5.4-4.63-8.56-6.27C144.75,1.33,139.29,0,133.8,0c-12.26-.01-23.7,6.56-29.88,17.16l-24.61,38.51c-1.68,2.63-4.27,4.49-7.3,5.24l-44.37,11c-12.03,2.46-21.92,11.19-25.83,22.81-3.68,10.92-1.68,22.91,5.41,32.15l.14.17c.27.35.54.69.77.96l29.23,36.26c1.92,2.38,2.86,5.36,2.66,8.41l-3.01,45.75c-1.13,10.61,2.74,21.11,10.25,28.44,1.09,1.05,2.25,2.03,3.48,2.93,5.96,4.37,13,6.69,20.37,6.7,4.04,0,8.01-.69,11.81-2.06l.29-.11c.4-.15.8-.3,1.2-.46l43.1-16.72c1.05-.41,2.13-.69,3.23-.87,2.17-.51,4.43-.42,6.56.27.66.17,1.32.36,1.97.61l43.06,16.83c.39.16.79.32,1.14.44l.35.13c3.8,1.38,7.77,2.08,11.81,2.09,3.97,0,7.83-.68,11.5-1.98.05-.01.09-.02.14-.03l3.16-1.09c2-.94,3.93-2.06,5.74-3.39,1.86-1.36,3.57-2.9,5.1-4.57Zm-7.45,1.34c-8.54,6.23-19.23,7.39-28.46,4.03h0s-.26-.1-.26-.1c-.36-.14-.73-.27-1.09-.42l-44.59-17.4c-3.76-1.47-7.93-1.47-11.69-.01l-44.63,17.29c-.36.15-.72.29-1.09.42l-.26.1h0c-9.25,3.33-19.93,2.15-28.45-4.1-9.11-6.69-13.42-17.48-12.27-27.96l3.02-45.83c.27-4.04-1-8.03-3.54-11.18l-29.23-36.26c-.25-.3-.49-.6-.73-.91l-.18-.22h0c-5.99-7.8-8.1-18.34-4.73-28.36,3.61-10.71,12.58-18.1,22.92-20.18l44.45-11.02c4.01-.99,7.48-3.49,9.71-6.97l24.66-38.58c5.29-9.12,15.16-15.26,26.46-15.24,10.57.01,19.88,5.4,25.35,13.56h0s.15.24.15.24c.21.32.42.65.63.98l24.91,39.19c2.22,3.49,5.69,5.99,9.7,6.99l44.42,11.11c10.33,2.11,19.29,9.52,22.87,20.24,3.35,10.03,1.21,20.56-4.8,28.35h0s-.18.22-.18.22c-.24.31-.48.61-.73.91l-29.32,36.19c-2.55,3.15-3.82,7.13-3.56,11.17l2.91,45.84c1.12,10.49-3.22,21.27-12.34,27.93Z"/></g></g></svg>