<?xml version="1.0" encoding="UTF-8"?><svg id="Layer_2" xmlns="http://www.w3.org/2000/svg" viewBox="0 0 1180.724 777.927"><defs><style>.cls-1{fill:#fff;}</style></defs><g id="logo_single_color_white"><g id="star_outline"><path class="cls-1" d="m360.05,648.267l-45.382,47.551c2.699-9.545,1.196-19.972-4.355-28.424l-22.772-37.947c-2.091-3.485-2.796-7.63-1.973-11.61l9.086-43.967c.099-.43.185-.862.258-1.244l.074-.364c2.065-11.357-1.637-22.934-9.901-30.968-8.788-8.543-21.578-11.79-33.4-8.483l-42.897,10.137c-4.039.954-8.289.322-11.875-1.767l-38.643-22.509c-.375-.231-.757-.448-1.09-.635l-.325-.188c-4.454-2.454-9.305-3.857-14.214-4.211l57.863-25.676c-1.531-.725-3.023-1.525-4.48-2.388l-68.331,30.322c-1.06.411-2.107.87-3.134,1.391h-.003s0,.001,0,.002c-.069.035-.14.064-.209.1-10.895,5.615-18.04,16.709-18.665,28.968l-4.035,43.932c-.38,4.133-2.331,7.962-5.452,10.697l-33.132,29.04c-9.552,7.709-14.329,20.008-12.471,32.124,1.748,11.393,9.029,21.125,19.476,26.034l.293.13c.399.182.799.363,1.12.495l41.17,18.151c3.719,1.64,6.686,4.618,8.311,8.344l17.691,40.564c4.446,11.44,14.716,19.727,26.823,21.634,7.298,1.148,14.618-.028,21.168-3.404,3.589-1.85,6.802-4.29,9.549-7.25l.207-.234c.288-.315.573-.634.849-.961l30.611-34.646c2.685-3.039,6.412-4.959,10.444-5.383l45.981-4.829c.426-.035.848-.082,1.213-.128l.371-.041c4.005-.517,7.856-1.718,11.447-3.568,3.527-1.818,6.647-4.203,9.307-7.035.034-.034.076-.058.109-.093l54.661-57.274c-.522-1.449-.971-2.914-1.341-4.389Zm-51.049,51.809c-4.719,9.458-13.685,15.393-23.435,16.653h0s-.282.03-.282.03c-.386.046-.772.09-1.159.122l-47.598,5.022c-4.01.423-7.717,2.333-10.389,5.354l-31.709,35.852c-.251.298-.51.586-.772.874l-.188.212h0c-6.684,7.21-16.72,11.067-27.161,9.423-11.166-1.758-19.951-9.365-23.745-19.205l-18.363-42.098c-1.618-3.71-4.573-6.676-8.277-8.309l-42.618-18.789c-.36-.148-.714-.308-1.067-.47l-.259-.114h0c-8.898-4.181-15.621-12.572-17.223-23.02-1.714-11.173,2.867-21.853,11.091-28.455l34.425-30.203c3.105-2.724,5.046-6.535,5.424-10.649l4.188-45.599c.51-10.533,6.459-20.515,16.507-25.694,9.396-4.842,20.135-4.334,28.746.41h0s.245.142.245.142c.338.19.676.383,1.007.587l40.123,23.372c3.571,2.08,7.805,2.71,11.827,1.76l44.559-10.53c10.148-2.867,21.504-.401,29.61,7.478,7.579,7.368,10.513,17.712,8.754,27.384h0s-.057.278-.057.278c-.073.381-.148.763-.236,1.142l-9.428,45.614c-.819,3.965-.118,8.092,1.965,11.564l23.633,39.38c5.812,8.799,6.91,20.368,1.863,30.483Z"/><path class="cls-1" d="m1178.551,316.131c-3.593-8.003-11.241-13.54-19.976-14.469l-27.068-3.967c-4.09-.599-7.794-2.746-10.347-5.997l-17.161-21.849c-.19-.255-.389-.505-.549-.701l-.178-.225c-4.832-5.859-11.943-9.143-19.511-9.011-.669.012-1.347.051-2.017.117-.337.033-.67.086-1.004.133l46.486-40.831c5.41-4.651,9.332-10.916,11.08-18.053,2.933-11.967-.766-24.708-9.649-33.273l-30.692-32.093c-2.863-2.993-4.467-6.972-4.482-11.114l-.161-45.047c.009-.441.004-.882-.003-1.28l-.004-.368c-.318-11.6-6.355-22.223-16.149-28.417-5.56-3.516-11.961-5.375-18.513-5.375-5.583,0-11.149,1.363-16.102,3.941l-40.221,18.908c-3.749,1.762-8.031,2.018-11.963.715l-42.13-13.966c-3.946-1.489-8.088-2.244-12.312-2.244-7.943,0-15.716,2.766-21.886,7.788-3.149,2.563-5.762,5.619-7.799,8.995l-.008-.005-34.238,57.297-1.896-6.291c-1.177-3.904-.842-8.107.936-11.775l14.586-30.082c.163-.317.317-.638.452-.929l.127-.266c3.871-8.493,3.265-18.302-1.622-26.24-5.119-8.316-14.017-13.282-23.801-13.282-.228,0-.454.003-.682.008l-32.81-.514c-4.125-.065-8.067-1.71-11.013-4.597l-23.798-23.315c-.247-.253-.501-.499-.723-.709l-.222-.215c-5.204-4.86-11.972-7.536-19.058-7.536-2.121,0-4.253.245-6.335.729-9.649,2.241-17.447,9.513-20.371,18.99l-10.928,30.962c-1.375,3.896-4.193,7.115-7.873,8.993l-29.205,14.908c-6.888,3.176-12.111,9.01-14.614,15.988l-.013-.005-59.429,163.655c.254.182.495.378.745.564.364.274.729.546,1.083.831.502.397.991.808,1.476,1.225l55.025-151.528c1.231,6.295,4.603,12.058,9.704,16.243l.199.155c.266.215.534.428.809.632l26.457,20.659c3.17,2.475,5.293,6.052,5.948,10.02l5.376,32.579c1.221,9.842,7.627,18.366,16.735,22.26,3.498,1.495,7.186,2.252,10.962,2.252,5.41,0,10.678-1.561,15.305-4.564l.14-.095c.283-.188.565-.377.842-.575l28.529-19.494c3.327-2.273,7.385-3.216,11.374-2.641l34.154,4.92c.352.059.704.107,1.007.146l.308.043c.947.132,1.903.199,2.859.199h.475c3.891,0,7.68-.815,11.159-2.331l-44.902,63.505c1.696-.148,3.409-.261,5.138-.338h0l50.604-71.571s0,0,0,0c-.27.345-.537.692-.825,1.026,6.46-7.508,8.454-17.982,5.214-27.356l-6.046-20.058,27.749-46.439c-.092,1.688-.077,3.393.081,5.106l.037.316c.044.438.092.876.141,1.227l5.236,45.02c.469,4.03-.595,8.089-2.981,11.371l-26.211,36.062c-7.654,9.678-9.609,22.8-5.099,34.266,4.243,10.784,13.543,18.71,24.967,21.223l.224.043c.433.091.866.179,1.21.236l45.755,8.924c3.972.775,7.509,3.011,9.912,6.268l27.622,37.437c.254.362.52.716.76,1.031l.221.296c6.637,8.558,16.632,13.467,27.424,13.467.794,0,1.6-.028,2.396-.082,4.36-.298,8.552-1.434,12.4-3.251l-100.935,88.656c-.347,1.236-.708,2.46-1.089,3.667-.023.073-.047.144-.07.217-.372,1.171-.754,2.332-1.157,3.476l75.973-66.731s0,0,0,0c-.115.406-.23.812-.324,1.225-1.845,8.05.432,16.454,6.15,22.54l.108.111c.217.226.435.45.592.601l19.686,19.981c2.846,2.889,4.502,6.743,4.639,10.796l.927,27.505c-.051,8.783,4.599,17.002,12.151,21.465,3.944,2.331,8.439,3.521,12.999,3.44,3.53-.062,7.081-.9,10.349-2.461l.167-.084c.27-.134.54-.267.717-.364l25.817-13.102c3.596-1.825,7.746-2.234,11.629-1.147l27.835,7.793c.29.088.577.166.823.23.556.151,1.118.281,1.682.391l-86.814,35.554c.174.652.334,1.309.481,1.969,0,0,0,0,0,0,.147.661.279,1.325.398,1.993,0,0,0,0,0,0l99.212-40.622c.451-.167.893-.353,1.334-.546l.555-.227-.007-.016c2.179-1.018,4.223-2.338,6.043-3.968,6.535-5.852,9.49-14.82,7.723-23.425l-4.466-27.169c-.656-3.994.213-8.089,2.436-11.471l15.364-23.382c.177-.257.346-.519.484-.735l.154-.238c4.375-7.017,4.968-15.704,1.586-23.238Zm-302.754-163.913c2.725,7.801,1.336,16.8-4.441,23.514-5.402,6.278-13.353,9.064-21.001,8.148h0s-.22-.031-.22-.031c-.302-.039-.603-.08-.904-.13l-33.92-4.887-1.318-.186c-4.341-.614-8.756.41-12.384,2.872l-29.395,20.085c-.248.178-.5.347-.754.515l-.183.125h0c-6.462,4.192-14.827,5.195-22.443,1.94-8.144-3.481-13.357-10.947-14.348-19.151l-5.695-34.501-.147-.892c-.529-3.203-2.243-6.09-4.801-8.088l-28.673-22.389c-.245-.182-.483-.371-.72-.562l-.175-.137h0c-5.956-4.885-9.451-12.551-8.661-20.796.845-8.817,6.376-16.049,13.891-19.484l28.35-14.488c5.195-2.655,9.174-7.202,11.115-12.704l10.595-30.018c2.411-7.904,8.848-14.343,17.476-16.347,8.067-1.873,16.128.576,21.758,5.834h0s.159.155.159.155c.22.21.44.421.652.639l23.704,23.224.567.556c3.416,3.347,7.986,5.255,12.768,5.33l33.467.523c8.26-.228,16.413,3.827,21.056,11.369,4.342,7.053,4.583,15.474,1.388,22.484h0s-.097.2-.097.2c-.129.276-.259.551-.399.822l-15.434,31.828-.032.066c-1.68,3.462-1.995,7.428-.885,11.112l3.504,11.622,1.159,3.846,5.421,17.981Zm193.406,112.755l.005.012c-.048.036-.096.073-.143.109l-.747.656-28.448,24.987s0,0,0,0c.687-1.072,1.331-2.177,1.901-3.333l21.346-39.139c1.942-3.562,5.153-6.263,8.995-7.567l40.305-13.682-43.214,37.957Zm-56.477,37.736c-10.609.725-20.325-4.029-26.386-11.845h0s-.169-.229-.169-.229c-.237-.311-.471-.623-.696-.944l-28.656-38.8c-2.378-3.22-5.876-5.432-9.804-6.2l-47.339-9.258c-.386-.066-.769-.144-1.151-.224l-.28-.055h0c-9.659-2.126-18.119-8.867-22.012-18.762-4.163-10.582-2.04-22.079,4.562-30.383l27.216-37.443c2.362-3.25,3.416-7.27,2.952-11.261l-5.424-46.629c-.054-.388-.096-.776-.135-1.165l-.033-.283h0c-.579-6.279.787-12.658,3.982-18.199.066-.109.132-.218.197-.327,1.794-3.023,4.129-5.794,7.015-8.143,8.819-7.179,20.418-8.646,30.334-4.876l43.802,14.52c3.895,1.291,8.138,1.037,11.851-.71l41.777-19.653c9.397-4.924,21.088-4.849,30.699,1.229,8.987,5.683,14.018,15.259,14.289,25.146h0s0,.285,0,.285c.007.391.012.781.004,1.173l.166,46.801c.015,4.102,1.604,8.042,4.439,11.007l31.896,33.351c7.657,7.343,11.303,18.451,8.598,29.496-2.53,10.328-10.009,18.143-19.296,21.545h0s-.27.092-.27.092c-.368.131-.737.26-1.111.377l-44.453,15.087c-3.805,1.291-6.985,3.966-8.909,7.494l-22.163,40.639c-4.672,9.525-14.149,16.371-25.494,17.146Zm15.311,3.745l14.473-12.711,16.84-14.792-10.065,19.855c-1.864,3.677-5.068,6.498-8.952,7.881l-21.127,7.524,8.831-7.757Zm147.645,26.285c-.26.79-.567,1.565-.92,2.318-.176.377-.364.749-.563,1.115-.199.366-.409.727-.63,1.081h0s-.106.161-.106.161c-.142.223-.285.444-.435.662l-16.254,24.734c-1.395,2.122-2.258,4.523-2.549,7.005-.116.993-.141,1.998-.072,3.003.035.503.093,1.005.176,1.507l4.728,28.771c1.1,5.259.135,10.837-2.829,15.459-.988,1.541-2.198,2.975-3.628,4.256-.369.33-.748.641-1.133.94-.082.064-.167.122-.25.185-.318.24-.641.471-.969.689-.069.046-.138.089-.207.133-.361.234-.726.457-1.098.666-.036.02-.072.04-.108.06-.416.232-.838.449-1.266.649h0c-1.264.594-2.572,1.057-3.905,1.38h0c-1.648.399-3.333.594-5.015.584-.004,0-.007,0-.011,0-.392-.003-.783-.018-1.173-.042-.031-.002-.062-.002-.094-.004-.363-.024-.724-.062-1.085-.105-.058-.007-.116-.01-.175-.017-.345-.044-.689-.102-1.032-.164-.071-.013-.144-.021-.215-.034-.413-.079-.823-.17-1.232-.273h0s-.185-.051-.185-.051c-.255-.067-.51-.136-.763-.213l-29.354-8.202c-3.898-1.089-8.063-.678-11.674,1.151l-27.186,13.778c-.233.125-.469.242-.706.358l-.172.087h0c-6.026,2.878-13.329,2.801-19.51-.852-6.61-3.907-10.253-10.91-10.184-18.073l-.982-29.139c-.137-4.061-1.796-7.922-4.648-10.816l-20.773-21.083c-.19-.184-.373-.373-.556-.564l-.135-.137h0c-4.572-4.868-6.715-11.85-5.111-18.849,1.716-7.484,7.283-13.081,14.129-15.19l27.329-9.732c3.909-1.392,7.135-4.233,9.01-7.935l13.117-25.893c.174-.384.362-.762.559-1.134.065-.123.137-.243.204-.365.137-.246.275-.491.421-.731.086-.142.177-.28.267-.419.138-.215.278-.428.424-.637.1-.144.203-.285.306-.426.146-.199.295-.395.448-.588.11-.14.222-.279.336-.416.158-.19.32-.375.485-.559.117-.13.232-.262.352-.389.178-.189.363-.373.548-.555.114-.113.225-.228.342-.338.242-.228.492-.448.745-.664.067-.057.13-.118.197-.174h0c1.589-1.325,3.39-2.412,5.345-3.219.031-.013.062-.027.094-.04.59-.24,1.192-.457,1.809-.644.022-.007.044-.012.066-.018.545-.163,1.102-.299,1.667-.418.14-.03.28-.059.421-.085.599-.113,1.204-.21,1.822-.271,7.145-.705,13.8,2.306,18.049,7.458h0s.119.151.119.151c.166.205.331.411.489.623l18.192,23.164c2.562,3.263,6.279,5.417,10.384,6.018l28.707,4.206c7.126.731,13.679,5.132,16.824,12.137,2.205,4.913,2.342,10.228.781,14.97Z"/></g><g id="logo_border"><path class="cls-1" d="m828.9,328.218c-15.166.095-23.111,11.675-23.842,27.658-.775,16.937,10.246,28.117,23.228,27.884,13.967-.251,23.167-8.001,23.792-27.884.532-16.917-10.194-27.739-23.178-27.658Z"/><path class="cls-1" d="m768.867,537.66c-3.759-.386-9.703-.412-13.389-.383-1.61.013-2.908,1.305-2.927,2.915-.041,3.479-.085,7.146-.133,10.931-.02,1.602,1.234,2.93,2.835,2.992,2.989.117,7.528.186,12.401-.126,6.576-.422,9.436-4.362,9.308-8.273-.124-3.782-3.042-7.537-8.094-8.056Z"/><path class="cls-1" d="m602.035,534.246c-6.682.115-10.369,21.033-10.573,31.395-.085,4.313.902,5.405,9.402,5.542,9.485.153,10.584-2.062,10.766-5.715.622-12.488-2.913-31.338-9.595-31.223Z"/><path class="cls-1" d="m1010.953,431.651l.07.017c-14.082-3.651-41.093-5.926-78.112-6.575-8.465-.148-16.455-.243-23.871-.284,12.761-17.63,19.694-40.503,20.645-68.224,1.045-30.484-8.985-58.249-28.245-78.179-18.476-19.12-43.813-29.65-71.348-29.65l-.61.002c-30.613.175-56.45,11.19-74.718,31.855-9.711,10.986-16.957,24.458-21.568,39.806.041-1.312.079-2.511.111-3.559.188-6.002.328-10.471.367-12.337.009-.428.022-.88.035-1.352.188-6.633.504-17.734-4.417-29.246-6.799-15.903-20.935-26.214-39.807-29.035-4.222-.631-8.33-.951-12.21-.951-18.822,0-33.896,7.517-43.061,20.631-9.431-12.736-24.547-20.075-42.983-20.075-6.448,0-13.225.938-19.597,2.71-11.49,3.198-20.754,10.032-26.873,19.65-17.161-20.268-37.523-20.852-49.754-21.202-1.462-.042-3.402-.089-5.449-.089-23.01,0-39.629,7.738-49.481,22.998-16.336-26.68-53.512-27.606-73.598-28.096-2.597-.063-4.98-.094-7.286-.094-15.294,0-35.056,1.202-52.263,10.572-9.876,5.378-21.627,15.065-28.812,32.205-.689-4.347-1.323-8.148-1.897-11.223-2.687-14.398-9.823-52.645-54.537-59.495-5.278-.809-10.633-1.219-15.918-1.219-36.405,0-62.365,19.395-67.166,49.736-5.956-16.793-18.198-33.435-44.979-38.135-5.298-.93-10.741-1.401-16.18-1.401-16.641,0-32.166,4.263-44.895,12.329-16.033,10.158-26.349,25.415-29.835,44.121-6.464,34.691-.096,115.401,5.762,161.187,3.572,27.916,10.346,47.176,21.319,60.613,12.151,14.879,29.208,22.424,50.697,22.424,4.682,0,9.613-.335,15.075-1.025,47.845-6.047,67.165-40.499,65.087-71.962-.334-5.058-1.334-15.937-3.036-33.002l.458-.031.141.715c4.979,25.248,11.965,42.732,21.985,55.024,11.832,14.516,27.75,21.876,47.312,21.877h.004c5.315,0,10.909-.532,17.103-1.626,21.072-3.722,36.382-12.51,45.574-26.137,2.733,2.859,5.869,5.568,9.48,8.011,10.964,7.418,24.257,10.726,43.098,10.725,1.834,0,3.77-.031,5.749-.094,7.07-.222,13.518-.518,19.432-.874-.297.523-.586,1.044-.856,1.559-5.841,11.112-6.964,22.386-7.747,34.911-1.508,24.13-1.903,101.421-.613,119.858,1.464,20.923,16.704,43.28,55.083,43.28l.616-.002c11.57-.069,23.792-.653,34.852-6.825,4.327-2.415,8.052-5.41,11.167-8.974,7.952,5.951,17.53,9.146,27.775,9.146h.003c14.323,0,27.314-6.243,34.695-12.087.963-.762,1.884-1.526,2.775-2.29,4.678,4.835,10.471,8.389,17.365,10.64,7.596,2.479,18.933,3.363,27.009,3.363,12.797,0,22.442-1.964,29.84-6.131,1.983,1.313,4.119,2.472,6.402,3.463,9.524,4.139,19.611,4.573,30.863,4.692l.668.007c1.206.013,2.357.024,3.455.024h.044c6.366,0,19.543-.022,30.734-9.74.124-.108.235-.224.357-.333,12.569,13.346,31.289,14.124,46.46,14.748,3.209.132,6.004.195,8.544.195,7.192,0,22.216,0,34.048-9.23,1.031.961,2.099,1.869,3.208,2.729,8.719,6.762,18.095,8.788,24.387,9.723,6.347.944,12.999,1.143,17.462,1.143h.002c3.334,0,6.472-.114,9.077-.329,26.08-2.157,37.286-15.424,42.093-26.856,3.409,9.212,9.505,16.949,18.033,22.77,9.74,6.648,22.604,10.628,39.325,12.166,6.921.637,12.476.933,17.483.933,9.608,0,23.774-.991,35.812-9.567,10.332-7.361,16.764-18.265,19.661-33.334,2.836-14.744,5.187-57.939,7.543-104.702.028-.564.057-1.129.085-1.692,29.751-2.645,50.576-23.206,52.431-52.422.176-2.587.727-10.916.773-14.445.308-22.55-15.643-42.917-37.916-48.428Zm-771.029,33.819c-29.059,5.133-45.523-4.758-55.218-53.912-1.314-6.664-2.91-14.9-4.62-24.062l-52.151,3.575c2.837,27.52,5.246,51.76,5.777,59.81,1.242,18.804-9.245,39.316-41.531,43.396-32.286,4.08-50.182-5.965-56.923-58.652-6.454-50.442-11.323-124.254-6.001-152.814,5.322-28.561,35.436-37.658,59.699-33.4,22.82,4.004,26.36,21.86,28.759,44.557.742,7.021,1.907,17.96,3.277,30.887l48.417-.911c-3.398-23.741-5.556-45.3-4.406-56.706,2.68-26.587,31.155-31.399,52.594-28.115,21.251,3.255,28.141,16.63,32.084,37.758,2.577,13.812,6.713,44.952,11.695,74.459,5.422,32.111,11.388,63.19,11.642,72.408.511,18.495-1.004,36.054-33.094,41.722Zm514.555-109.81c2.306-46.175,27.349-79.63,75.158-79.903,40.93-.234,74.74,31.029,73.064,79.903-1.97,57.441-33.812,80.87-76.646,80.134-40.924-.702-74.02-31.205-71.576-80.134Zm-406.803,101.917c-15.657.491-25.826-1.242-32.873-6.009-12.939-8.753-15.496-24.535-16.596-31.411-1.699-10.622-4.082-74.71,1.017-112.098,5.098-37.388,34.12-41.392,66.599-40.6,20.001.488,43.632,2.078,51.481,15.583,7.138,12.282,5.079,30.358-2.539,36.129-8.105,6.14-41.324-3.463-47.095,2.77-4.168,4.502-3.408,16.339-.693,19.277,5.656,6.118,33.936-1.731,40.285,9.003,6.349,10.735,3.958,25.499-.808,31.974-6.118,8.311-34.282,5.079-37.745,7.272-3.463,2.193-2.909,14.807.115,16.968,4.04,2.886,22.158,1.408,30.358.693,25.233-2.201,26.77,6.884,27.924,14.734,1.154,7.849,1.51,21.627-8.301,26.244-9.811,4.617-32.455,8.258-71.129,9.471Zm158.493,185.811c-4.675,3.701-21.661,12.305-32.823-.584-8.698-10.045-19.568-25.872-27.562-36.894-.037,12.572-.286,24.511-.745,29.51-1.735,18.875-11.766,20.764-30.766,20.878-18.69.112-27.8-6.701-28.602-18.164-1.169-16.704-.835-92.906.626-116.289.649-10.377,1.449-17.85,4.699-24.034,4.446-8.459,11.94-12.826,24.246-13.391,22.132-1.016,27.34,7.758,28.938,25.661.138,1.548.231,5.793.389,9.882,7.184-11.227,16.596-25.829,21.077-30.761,1.913-2.106,3.798-4.09,6.412-5.472,7.408-3.917,18.582-3.615,28.461,2.556,12.723,7.947,14.034,23.072,8.571,33.602-4.361,8.406-19.288,28.182-25.213,36.534-2.255,3.178-2.27,4.55-.121,7.454,8.342,11.271,26.827,37.16,33.516,49.514,7.938,14.661-6.428,26.297-11.103,29.999Zm10.987-283.032s1.155,64.329-.66,76.37c-1.814,12.041-9.381,18.012-28.041,17.979-19.671-.035-28.701-6.268-30.515-24.082-1.814-17.814-6.097-127.451,3.828-145.755,6.729-12.409,20.924-12.554,32.47-12.224,11.546.33,21.268,1.114,30.34,12.165s40.691,64.471,40.691,64.471l-1.832-43.061c-.834-14.529.886-28.952,15.437-33.002,12.77-3.554,34.103-3.439,38.271,18.592,1.718,9.083,3.457,26.473,4.429,59.187.913,30.74,1.477,61.604-1.214,73.237-3.848,16.638-16.791,22.031-31.439,21.793s-21.494-3.408-33.759-20.199-38.007-65.472-38.007-65.472Zm147.722,257.123c-3.757,19.105-6.284,27.061-10.497,30.72-3.843,3.338-9.148,3.178-16.917,3.096-16.731-.175-28.249-.859-28.134-16.547.106-14.465.604-17.579-.498-19.648-.736-1.381-5.344-1.625-9.54-1.46-4.196.165-6.491.152-7.179,2.221-.684,2.053-.43,9.766-.635,16.877s-.697,10.762-3.874,13.255c-6.27,4.921-29.564,3.399-36.158,1.246-5.615-1.833-11.228-5.895-12.907-22.451-2.038-20.096-5.183-95.601,25.939-122.434,13.415-11.566,28.561-13.057,42.472-13.058,23.431,0,42.75,8.539,53.064,32.811,8.247,19.409,12.047,58.842,4.864,95.371Zm3.103-167.599c-13.736-.07-22.035-9.795-22.644-22.373-1.728-35.677,4.173-115.837,6.388-134.218,1.959-16.262,12.475-24.878,33.771-21.695,23.22,3.47,21.381,22.95,21.185,32.366-.196,9.416-3.037,86.576-1.356,88.078,1.818,1.623,26.944-1.309,32.192,1.902,5.254,3.214,8.804,9.338,8.608,23.853s-3.368,22.584-15.514,25.438c-12.465,2.929-45.737,6.734-62.63,6.649Zm166.316,193.948c-.75,11.121-8.838,15.495-20.893,16.492-4.755.393-13.771.367-20.345-.61-4.054-.603-8.28-1.614-11.812-4.353-3.817-2.959-6.928-7.843-9.784-15.386-6.631-17.509-15.125-30.415-19.916-36.923-.209,9.013-.442,16.739-.695,21.96-1.318,27.151-.232,32.272-30.841,31.015-32.275-1.326-32.646-4.803-32.622-36.375.024-31.646,3.981-82.361,7.786-107.997,2.512-16.921,14.712-22.322,30.087-24.097.239-.041.465-.095.713-.127,10.703-1.4,43.911-3.002,65.356,1.669,10.21,2.224,20.849,7.436,28.93,16.469,5.686,6.356,10.478,14.932,11.342,24.262,3.938,42.529-23.395,51.4-23.395,51.4,0,0,29.043,18.854,26.091,62.603Zm186.857-151.07c-1.021,16.433-12.262,27.028-30.936,27.462-3.437.08-9.448.477-15.966.258-1.037-.035-2.475.406-3.167,1.179-.632.707-1.061,1.527-1.183,2.476-.712,5.551-4.597,104.443-8.378,124.106-3.781,19.663-14.812,22.864-43.97,20.182-24.229-2.229-34.681-10.048-35.891-23.812s4.443-115.093,4.447-121.301c.002-2.514-.022-4.454-.549-5.921-.399-1.109-2.33-2.106-3.506-2.191-8.083-.585-14.23-1.075-17.173-1.376-14.312-1.46-22.17-11.039-21.645-24.266,0,0,.667-13.704,2.137-19.504,2.222-8.769,9.793-15.587,18.491-17.054,6.917-1.167,32.662-1.538,68.574-.908,55.326.971,70.488,5.39,72.022,5.769,10.062,2.489,17.551,11.758,17.413,21.853-.042,3.106-.718,13.048-.718,13.048Z"/></g></g></svg>